<svg width="13" height="4" viewBox="0 0 13 4" fill="none" xmlns="http://www.w3.org/2000/svg">
<path d="M1.46094 3.14062C0.705078 3.14062 0.0898438 2.52539 0.0898438 1.76953C0.0898438 1.03125 0.705078 0.416016 1.46094 0.416016C2.18164 0.416016 2.81445 1.03125 2.81445 1.76953C2.81445 2.52539 2.18164 3.14062 1.46094 3.14062ZM6.36523 3.14062C5.60938 3.14062 4.99414 2.52539 4.99414 1.76953C4.99414 1.03125 5.60938 0.416016 6.36523 0.416016C7.08594 0.416016 7.71875 1.03125 7.71875 1.76953C7.71875 2.52539 7.08594 3.14062 6.36523 3.14062ZM11.2695 3.14062C10.5137 3.14062 9.89844 2.52539 9.89844 1.76953C9.89844 1.03125 10.5137 0.416016 11.2695 0.416016C11.9902 0.416016 12.623 1.03125 12.623 1.76953C12.623 2.52539 11.9902 3.14062 11.2695 3.14062Z" fill="black"/>
</svg>
